# Blender v2.79 (sub 0) OBJ File: ''
# www.blender.org
mtllib house2.mtl
o mesh777679980
v 0.011551 -0.042240 -0.273677
v -0.921783 -0.042240 -0.273677
v -0.921783 -0.342241 -0.273677
v 0.011551 -0.342240 -0.273677
v -0.921782 -0.342240 -0.840344
v -0.921783 -0.042240 -0.840344
v 0.011551 -0.042240 -0.840344
v 0.011551 -0.342240 -0.840344
v 0.011552 0.191094 -0.557010
v -0.921783 0.191093 -0.557010
v -0.921783 -0.232240 -0.503677
v -0.921783 -0.132240 -0.503677
v -0.955116 -0.132240 -0.503677
v -0.955116 -0.232240 -0.503677
v -0.955116 -0.132240 -0.603677
v -0.921783 -0.132240 -0.603677
v -0.921783 -0.232240 -0.603677
v -0.955116 -0.232240 -0.603677
v 0.028218 -0.342241 -0.590344
v 0.028218 -0.142241 -0.590344
v -0.005116 -0.142241 -0.590344
v -0.005116 -0.342241 -0.590344
v -0.005116 -0.142241 -0.690344
v 0.028218 -0.142241 -0.690344
v 0.028218 -0.342240 -0.690344
v -0.005116 -0.342240 -0.690344
v -0.705116 -0.242241 -0.257010
v -0.705116 -0.142241 -0.257010
v -0.705116 -0.142240 -0.870343
v -0.705116 -0.242240 -0.870343
v -0.605116 -0.142240 -0.870343
v -0.605116 -0.142241 -0.257010
v -0.605116 -0.242241 -0.257010
v -0.605116 -0.242240 -0.870343
v 0.028218 -0.242241 -0.390344
v 0.028218 -0.142241 -0.390344
v -0.005115 -0.142241 -0.390344
v -0.005115 -0.242241 -0.390344
v -0.005115 -0.142241 -0.490344
v 0.028218 -0.142241 -0.490344
v 0.028218 -0.242241 -0.490344
v -0.005115 -0.242241 -0.490344
v -0.305116 -0.242241 -0.257010
v -0.305116 -0.142241 -0.257010
v -0.305116 -0.142240 -0.870344
v -0.305116 -0.242240 -0.870343
v -0.205116 -0.142240 -0.870344
v -0.205116 -0.142241 -0.257010
v -0.205116 -0.242241 -0.257010
v -0.205116 -0.242240 -0.870343
v 0.044884 0.207512 -0.576948
v -0.955116 0.207511 -0.576946
v -0.955116 0.226471 -0.561332
v 0.044884 0.226472 -0.561334
v 0.044885 -0.058658 -0.253741
v 0.044885 -0.039699 -0.238127
v -0.955116 -0.039700 -0.238125
v -0.955116 -0.058659 -0.253739
v 0.044884 0.221564 -0.558645
v -0.955116 0.221563 -0.558647
v -0.955116 0.202604 -0.543033
v 0.044884 0.202605 -0.543031
v -0.955115 -0.063566 -0.866240
v -0.955115 -0.044607 -0.881854
v 0.044885 -0.044606 -0.881852
v 0.044885 -0.063565 -0.866238
vt 0.110054 0.082233
vt 0.130924 0.040493
vt 0.117508 0.033785
vt 0.096638 0.075524
vt -0.117508 0.033785
vt -0.130924 0.040493
vt -0.110054 0.082233
vt -0.096638 0.075524
vt 0.036643 -0.036802
vt 0.009960 -0.027272
vt 0.025656 0.016676
vt 0.052338 0.007146
vt 0.046154 0.055691
vt 0.069973 0.015561
vt 0.054191 0.006194
vt 0.030372 0.046324
vt 0.084968 0.087036
vt 0.093687 0.099242
vt 0.111996 0.100502
vt 0.116742 0.082774
vt 0.108024 0.070568
vt -0.116742 0.082774
vt -0.111996 0.100502
vt -0.093687 0.099242
vt -0.084968 0.087036
vt -0.108024 0.070568
vt -0.117498 0.029309
vt -0.099162 0.028536
vt -0.101128 -0.018089
vt -0.119464 -0.017316
vt 0.066422 0.071214
vt 0.092553 0.028585
vt 0.092754 0.028708
vt 0.066623 0.071337
vt -0.048905 0.060476
vt -0.049106 0.060599
vt -0.075237 0.017970
vt -0.075036 0.017847
vt 0.117180 0.030964
vt 0.121191 0.031133
vt 0.123297 -0.018823
vt 0.119286 -0.018992
vt -0.118384 0.031015
vt -0.120491 -0.018941
vt -0.124501 -0.018772
vt -0.122395 0.031184
vt 0.111662 0.101749
vt 0.112848 0.102067
vt 0.118263 0.081844
vt 0.117077 0.081526
vt -0.111662 0.101749
vt -0.117077 0.081526
vt -0.118263 0.081844
vt -0.112848 0.102066
vt 0.066389 0.071193
vt 0.092520 0.028565
vt 0.091473 0.027923
vt 0.065342 0.070551
vt -0.091473 0.027923
vt -0.092520 0.028565
vt -0.066389 0.071193
vt -0.065342 0.070551
vt 0.120438 -0.018943
vt 0.099522 -0.019825
vt 0.097416 0.030131
vt 0.118332 0.031012
vt -0.097416 0.030131
vt -0.099522 -0.019825
vt -0.120438 -0.018943
vt -0.118332 0.031012
vt 0.092014 0.099127
vt 0.091929 0.100352
vt 0.112815 0.101789
vt 0.112899 0.100564
vt -0.112815 0.101789
vt -0.091929 0.100352
vt -0.092014 0.099127
vt -0.112899 0.100564
vt 0.122427 0.036244
vt 0.126899 0.038480
vt 0.127645 0.036990
vt 0.123173 0.034753
vt -0.127645 0.036990
vt -0.126899 0.038480
vt -0.122427 0.036244
vt -0.123173 0.034753
vt -0.104769 0.085796
vt -0.100700 0.088703
vt -0.097794 0.084634
vt -0.101863 0.081728
vt 0.097794 0.084634
vt 0.100700 0.088703
vt 0.104769 0.085796
vt 0.101863 0.081728
vt 0.020543 -0.032822
vt 0.021104 -0.031252
vt 0.025813 -0.032934
vt 0.025252 -0.034503
vt -0.025813 -0.032934
vt -0.021104 -0.031252
vt -0.020543 -0.032822
vt -0.025252 -0.034503
vt 0.096265 0.076270
vt 0.105209 0.080742
vt 0.105955 0.079251
vt 0.097011 0.074779
vt -0.105955 0.079251
vt -0.105209 0.080742
vt -0.096265 0.076270
vt -0.097011 0.074779
vt -0.100952 0.087908
vt -0.096883 0.090814
vt -0.091071 0.082677
vt -0.095140 0.079771
vt 0.091071 0.082677
vt 0.096883 0.090814
vt 0.100952 0.087908
vt 0.095140 0.079771
vt 0.032439 0.013369
vt 0.032999 0.014938
vt 0.037708 0.013256
vt 0.037147 0.011687
vt -0.037708 0.013256
vt -0.032999 0.014938
vt -0.032439 0.013369
vt -0.037147 0.011687
vt -0.111608 0.074152
vt -0.114514 0.078221
vt -0.089560 0.096046
vt -0.086654 0.091977
vt 0.089560 0.096046
vt 0.114514 0.078221
vt 0.111608 0.074152
vt 0.086654 0.091977
vt -0.121607 0.047946
vt -0.119371 0.052418
vt -0.114899 0.050182
vt -0.117135 0.045710
vt 0.114899 0.050182
vt 0.119371 0.052418
vt 0.121607 0.047946
vt 0.117135 0.045710
vt 0.013873 -0.011857
vt 0.042753 -0.022171
vt 0.041071 -0.026880
vt 0.012191 -0.016565
vt -0.041071 -0.026880
vt -0.042753 -0.022171
vt -0.013873 -0.011857
vt -0.012191 -0.016565
vt 0.100737 0.078506
vt 0.105209 0.080742
vt 0.105955 0.079251
vt 0.101483 0.077015
vt -0.105955 0.079251
vt -0.105209 0.080742
vt -0.100737 0.078506
vt -0.101483 0.077015
vt -0.109089 0.082096
vt -0.105021 0.085002
vt -0.102114 0.080933
vt -0.106183 0.078027
vt 0.102114 0.080933
vt 0.105021 0.085002
vt 0.109089 0.082096
vt 0.106183 0.078027
vt 0.041856 0.010005
vt 0.042417 0.011575
vt 0.047125 0.009893
vt 0.046565 0.008324
vt -0.047125 0.009893
vt -0.042417 0.011575
vt -0.041856 0.010005
vt -0.046565 0.008324
vt -0.111608 0.074152
vt -0.114514 0.078221
vt -0.089560 0.096046
vt -0.086654 0.091977
vt 0.089560 0.096046
vt 0.114514 0.078221
vt 0.111608 0.074152
vt 0.086654 0.091977
vt -0.112663 0.065835
vt -0.110427 0.070307
vt -0.105955 0.068071
vt -0.108191 0.063599
vt 0.105955 0.068071
vt 0.110427 0.070307
vt 0.112663 0.065835
vt 0.108191 0.063599
vt 0.020599 0.006978
vt 0.049480 -0.003336
vt 0.047798 -0.008045
vt 0.018918 0.002269
vt -0.047798 -0.008045
vt -0.049480 -0.003336
vt -0.020599 0.006978
vt -0.018918 0.002269
vn -0.0000 -0.0000 1.0000
vn 0.0000 0.0000 -1.0000
vn 0.0000 -1.0000 -0.0000
vn -0.0000 0.7719 0.6357
vn 1.0000 -0.0000 0.0000
vn -1.0000 -0.0000 -0.0000
vn -0.0000 0.7719 -0.6357
vn 0.0000 0.6357 0.7720
vn 0.0004 -0.6357 -0.7720
vn -0.0000 -0.6357 -0.7720
vn 0.0000 -0.7719 0.6357
vn -0.0000 0.6357 0.7719
vn 0.0000 -0.6357 -0.7719
vn 0.0000 1.0000 0.0000
usemtl mat12
s 1
f 1/1/1 2/2/1 3/3/1 4/4/1
f 5/5/2 6/6/2 7/7/2 8/8/2
f 3/9/3 5/10/3 8/11/3 4/12/3
f 9/13/4 10/14/4 2/15/4 1/16/4
f 8/17/5 7/18/5 9/19/5 1/20/5 4/21/5
f 2/22/6 10/23/6 6/24/6 5/25/6 3/26/6
f 9/27/7 7/28/7 6/29/7 10/30/7
usemtl mat22
f 51/31/8 52/32/8 53/33/8 54/34/8
f 55/35/9 56/36/10 57/37/10 58/38/10
f 51/39/11 55/40/11 58/41/11 52/42/11
f 54/43/7 53/44/7 57/45/7 56/46/7
f 51/47/5 54/48/5 56/49/5 55/50/5
f 52/51/6 58/52/6 57/53/6 53/54/6
f 59/55/12 60/56/12 61/57/12 62/58/12
f 63/59/13 64/60/13 65/61/13 66/62/13
f 61/63/11 63/64/11 66/65/11 62/66/11
f 65/67/7 64/68/7 60/69/7 59/70/7
f 66/71/5 65/72/5 59/73/5 62/74/5
f 60/75/6 64/76/6 63/77/6 61/78/6
usemtl mat24
f 11/79/1 12/80/1 13/81/1 14/82/1
f 15/83/2 16/84/2 17/85/2 18/86/2
f 13/87/6 15/88/6 18/89/6 14/90/6
f 17/91/5 16/92/5 12/93/5 11/94/5
f 18/95/3 17/96/3 11/97/3 14/98/3
usemtl mat23
f 12/99/14 16/100/14 15/101/14 13/102/14
f 19/103/1 20/104/1 21/105/1 22/106/1
f 23/107/2 24/108/2 25/109/2 26/110/2
f 21/111/6 23/112/6 26/113/6 22/114/6
f 25/115/5 24/116/5 20/117/5 19/118/5
f 26/119/3 25/120/3 19/121/3 22/122/3
usemtl mat24
f 20/123/14 24/124/14 23/125/14 21/126/14
f 27/127/6 28/128/6 29/129/6 30/130/6
f 31/131/5 32/132/5 33/133/5 34/134/5
f 29/135/2 31/136/2 34/137/2 30/138/2
f 33/139/1 32/140/1 28/141/1 27/142/1
f 34/143/3 33/144/3 27/145/3 30/146/3
f 28/147/14 32/148/14 31/149/14 29/150/14
f 35/151/1 36/152/1 37/153/1 38/154/1
f 39/155/2 40/156/2 41/157/2 42/158/2
f 37/159/6 39/160/6 42/161/6 38/162/6
f 41/163/5 40/164/5 36/165/5 35/166/5
f 42/167/3 41/168/3 35/169/3 38/170/3
f 36/171/14 40/172/14 39/173/14 37/174/14
f 43/175/6 44/176/6 45/177/6 46/178/6
f 47/179/5 48/180/5 49/181/5 50/182/5
f 45/183/2 47/184/2 50/185/2 46/186/2
f 49/187/1 48/188/1 44/189/1 43/190/1
f 50/191/3 49/192/3 43/193/3 46/194/3
f 44/195/14 48/196/14 47/197/14 45/198/14
